<svg height="512pt" viewBox="0 0 512 512" width="512pt" xmlns="http://www.w3.org/2000/svg"><path d="m7.574219 441.816406h326.183593v62.609375h-326.183593zm0 0" fill="#ff933b"/><path d="m311.539062 441.816406c-4.5625 10.171875-7.066406 21.371094-7.066406 33v.324219c0 4.460937-3.617187 8.078125-8.078125 8.078125h-288.820312v21.207031h326.183593v-62.609375zm0 0" fill="#f27d27"/><path d="m504.425781 504.425781v-29.609375c0-25.800781-16.339843-48.773437-40.714843-57.238281l-31.996094-11.109375h-34.335938l-31.992187 11.109375c-24.375 8.464844-40.714844 31.4375-40.714844 57.238281v29.609375zm0 0" fill="#636363"/><path d="m463.710938 417.578125-5.664063-1.964844c14.933594 11.238281 24.164063 29.027344 24.164063 48.417969v40.394531h22.214843v-29.609375c0-25.800781-16.339843-48.773437-40.714843-57.238281zm0 0" fill="#494949"/><path d="m456.964844 348.90625c0-23.425781-18.992188-42.414062-42.414063-42.414062-23.425781 0-42.414062 18.988281-42.414062 42.414062v15.148438c0 23.425781 18.988281 42.414062 42.414062 42.414062 23.421875 0 42.414063-18.988281 42.414063-42.414062zm0 0" fill="#feccc1"/><path d="m414.546875 306.492188c-2.941406 0-5.8125.300781-8.582031.871093 19.308594 3.96875 33.828125 21.058594 33.828125 41.542969v15.148438c0 20.484374-14.519531 37.574218-33.828125 41.542968 2.769531.570313 5.640625.871094 8.582031.871094 23.425781 0 42.414063-18.988281 42.414063-42.414062v-15.148438c.003906-23.421875-18.988282-42.414062-42.414063-42.414062zm0 0" fill="#f9b3a7"/><path d="m226.390625 354.96875-14.824219-5.148438v.097657l-34.335937 59.582031-34.335938-59.582031-.011719-.09375-14.8125 5.144531c-24.375 8.460938-40.71875 31.433594-40.71875 57.238281v29.605469h179.757813v-29.605469c0-25.804687-16.34375-48.777343-40.71875-57.238281zm0 0" fill="#636363"/><path d="m226.390625 354.96875-5.660156-1.96875c14.929687 11.238281 24.160156 29.027344 24.160156 48.421875v40.394531h22.21875v-29.609375c0-25.804687-16.34375-48.777343-40.71875-57.238281zm0 0" fill="#494949"/><path d="m142.894531 349.917969 34.335938 59.582031 34.335937-59.582031v-.097657l-17.167968-5.960937h-34.335938l-17.179688 5.964844zm0 0" fill="#ddf5ff"/><path d="m219.644531 286.296875c0-23.425781-18.988281-42.414063-42.414062-42.414063s-42.414063 18.988282-42.414063 42.414063v15.148437c0 23.421876 18.988282 42.414063 42.414063 42.414063s42.414062-18.992187 42.414062-42.414063zm0 0" fill="#feccc1"/><path d="m177.230469 243.882812c-2.941407 0-5.8125.300782-8.582031.871094 19.308593 3.96875 33.828124 21.058594 33.828124 41.542969v15.148437c0 20.484376-14.519531 37.574219-33.828124 41.542969 2.769531.570313 5.640624.871094 8.582031.871094 23.425781 0 42.414062-18.992187 42.414062-42.414063v-15.148437c0-23.425781-18.988281-42.414063-42.414062-42.414063zm0 0" fill="#f9b3a7"/><path d="m264.078125 7.574219h-216.109375c-22.308594 0-40.394531 18.085937-40.394531 40.394531v105.023438c0 22.3125 18.085937 40.394531 40.394531 40.394531h22.214844l50.496094 50.496093v-50.496093h143.398437c22.308594 0 40.394531-18.082031 40.394531-40.394531v-105.023438c0-22.308594-18.085937-40.394531-40.394531-40.394531zm0 0" fill="#8db0ff"/><path d="m264.078125 7.574219h-216.109375c-22.308594 0-40.394531 18.085937-40.394531 40.394531v105.023438c0 22.3125 18.085937 40.394531 40.394531 40.394531h22.214844l50.496094 50.496093v-50.496093h143.398437c22.308594 0 40.394531-18.082031 40.394531-40.394531v-105.023438c0-22.308594-18.085937-40.394531-40.394531-40.394531zm0 0" fill="#8db0ff"/><path d="m47.96875 173.191406c-22.308594 0-40.394531-18.085937-40.394531-40.394531v20.195313c0 22.3125 18.085937 40.394531 40.394531 40.394531h22.214844l50.496094 50.496093v-20.199218l-44.578126-44.578125c-3.789062-3.785157-8.925781-5.914063-14.28125-5.914063zm0 0" fill="#669af7"/><path d="m264.078125 7.574219h-25.246094c14.371094 0 26.992188 7.507812 34.148438 18.8125 4.261719 6.730469-.558594 15.523437-8.527344 15.523437h-16.53125c-33.464844 0-60.59375 27.125-60.59375 60.589844v60.59375c0 5.578125-4.519531 10.097656-10.097656 10.097656h-36.355469c-11.15625 0-20.195312 9.042969-20.195312 20.199219h143.398437c22.308594 0 40.394531-18.085937 40.394531-40.394531v-105.027344c0-22.308594-18.085937-40.394531-40.394531-40.394531zm0 0" fill="#669af7"/><path d="m247.921875 62.105469h216.109375c22.308594 0 40.394531 18.085937 40.394531 40.394531v105.027344c0 22.308594-18.085937 40.394531-40.394531 40.394531h-104.015625v50.492187l-50.492187-50.492187h-61.601563c-22.308594 0-40.394531-18.085937-40.394531-40.394531v-105.027344c0-22.308594 18.085937-40.394531 40.394531-40.394531zm0 0" fill="#ffd664"/><path d="m247.921875 225.703125c-22.308594 0-40.394531-18.085937-40.394531-40.394531v22.21875c0 22.308594 18.085937 40.394531 40.394531 40.394531h61.601563l50.492187 50.492187v-22.21875l-44.578125-44.574218c-3.785156-3.789063-8.921875-5.917969-14.28125-5.917969zm0 0" fill="#f9c646"/><path d="m464.03125 62.105469h-25.246094c22.308594 0 40.394532 18.085937 40.394532 40.394531v103.007812c0 11.152344-9.042969 20.195313-20.199219 20.195313h-78.765625c-11.15625 0-20.199219 9.042969-20.199219 20.199219v2.019531h104.015625c22.308594 0 40.394531-18.085937 40.394531-40.394531v-105.027344c0-22.308594-18.085937-40.394531-40.394531-40.394531zm0 0" fill="#f9c646"/><path d="m466.191406 410.421875-20.667968-7.175781c11.570312-9.164063 19.011718-23.320313 19.011718-39.191406v-15.148438c0-27.5625-22.425781-49.988281-49.988281-49.988281s-49.988281 22.425781-49.988281 49.988281v15.148438c0 15.871093 7.445312 30.027343 19.015625 39.191406l-20.671875 7.175781c-13.257813 4.605469-24.402344 13.050781-32.382813 23.820313h-55.835937v-22.035157c0-29.003906-18.410156-54.882812-45.808594-64.394531l-20.671875-7.175781c11.570313-9.164063 19.015625-23.320313 19.015625-39.191407v-15.148437c0-27.566406-22.425781-49.988281-49.988281-49.988281s-49.988281 22.425781-49.988281 49.988281v15.148437c0 15.871094 7.445312 30.027344 19.011718 39.191407l-20.667968 7.175781c-27.398438 9.511719-45.808594 35.390625-45.808594 64.394531v22.035157h-72.203125c-4.183594 0-7.574219 3.390624-7.574219 7.574218v62.609375c0 4.183594 3.390625 7.574219 7.574219 7.574219h315.078125c.339844 0 .675781-.03125 1.007812-.074219.332032.042969.667969.074219 1.011719.074219h179.753906c4.183594 0 7.574219-3.390625 7.574219-7.574219v-29.609375c0-29-18.40625-54.878906-45.808594-64.394531zm-86.484375-61.515625c0-19.210938 15.628907-34.839844 34.839844-34.839844s34.839844 15.628906 34.839844 34.839844v15.148438c0 19.210937-15.628907 34.839843-34.839844 34.839843s-34.839844-15.628906-34.839844-34.839843zm-237.316406-62.609375c0-19.210937 15.628906-34.839844 34.839844-34.839844 19.210937 0 34.839843 15.628907 34.839843 34.839844v15.148437c0 19.210938-15.628906 34.839844-34.839843 34.839844-19.210938 0-34.839844-15.628906-34.839844-34.839844zm50.730469 65.136719 7.359375 2.554687-23.25 40.339844-23.25-40.339844 7.359375-2.554687zm-98.195313 60.773437c0-22.558593 14.320313-42.6875 35.628907-50.085937l8.859374-3.074219 31.253907 54.234375c1.351562 2.347656 3.855469 3.792969 6.5625 3.792969s5.210937-1.445313 6.5625-3.792969l31.253906-54.234375 8.859375 3.074219c21.308594 7.398437 35.625 27.527344 35.625 50.085937v22.035157h-164.605469zm-79.777343 37.183594h306.882812c-3.195312 7.925781-4.933594 16.527344-4.933594 25.425781v22.035156h-301.949218zm481.703124 47.460937h-164.605468v-22.035156c0-22.558594 14.316406-42.683594 35.625-50.085937l30.785156-10.6875h31.78125l30.785156 10.6875c21.3125 7.402343 35.628906 27.527343 35.628906 50.085937zm0 0"/><path d="m464.03125 54.53125h-76.9375c-4.183594 0-7.574219 3.394531-7.574219 7.574219 0 4.183593 3.390625 7.574219 7.574219 7.574219h76.9375c18.097656 0 32.820312 14.722656 32.820312 32.824218v105.023438c0 18.097656-14.722656 32.820312-32.820312 32.820312h-104.015625c-4.183594 0-7.574219 3.390625-7.574219 7.574219v32.210937l-37.5625-37.566406c-1.421875-1.421875-3.347656-2.21875-5.355468-2.21875h-61.601563c-18.097656 0-32.824219-14.722656-32.824219-32.820312v-105.027344c0-18.097656 14.722656-32.820312 32.824219-32.820312h103.761719c4.183594 0 7.574218-3.390626 7.574218-7.574219 0-4.183594-3.390624-7.574219-7.574218-7.574219h-39.636719v-6.5625c0-26.449219-21.519531-47.96875-47.96875-47.96875h-216.109375c-26.449219 0-47.96875 21.519531-47.96875 47.96875v16.746094c0 4.183594 3.390625 7.574218 7.574219 7.574218 4.183593 0 7.574219-3.390624 7.574219-7.574218v-16.746094c0-18.097656 14.722656-32.820312 32.820312-32.820312h216.109375c18.097656 0 32.820313 14.722656 32.820313 32.820312v6.5625h-48.976563c-26.449219 0-47.96875 21.519531-47.96875 47.96875v83.3125h-79.273437c-4.183594 0-7.574219 3.390625-7.574219 7.574219v32.210937l-37.5625-37.566406c-1.421875-1.421875-3.347657-2.21875-5.355469-2.21875h-22.21875c-18.097656 0-32.820312-14.722656-32.820312-32.820312v-53.058594c0-4.183594-3.390626-7.574219-7.574219-7.574219-4.183594 0-7.574219 3.390625-7.574219 7.574219v53.058594c0 26.453124 21.519531 47.96875 47.96875 47.96875h19.078125l48.277344 48.277343c1.449219 1.449219 3.386719 2.21875 5.355469 2.214844.976562 0 1.960937-.1875 2.898437-.574219 2.828125-1.171875 4.675781-3.933594 4.675781-6.996094v-42.921874h71.699219v6.566406c0 26.449218 21.519531 47.964844 47.96875 47.964844h58.464844l48.273437 48.277343c1.449219 1.449219 3.386719 2.21875 5.355469 2.21875.976563 0 1.960937-.1875 2.898437-.578125 2.828126-1.171875 4.675782-3.933594 4.675782-6.996094v-42.921874h96.441406c26.449219 0 47.96875-21.515626 47.96875-47.964844v-105.027344c0-26.449219-21.519531-47.96875-47.96875-47.96875zm0 0"/></svg>