<svg id="Capa_1" enable-background="new 0 0 512 512" height="512" viewBox="0 0 512 512" width="512" xmlns="http://www.w3.org/2000/svg" xmlns:xlink="http://www.w3.org/1999/xlink"><linearGradient id="SVGID_1_" gradientUnits="userSpaceOnUse" x1="53.976" x2="458.024" y1="256" y2="256"><stop offset=".0485" stop-color="#d2deff"/><stop offset=".9993" stop-color="#dcfdee"/></linearGradient><g><g><g><path d="m170.091.39c-68.06 4.435-134.218 61.127-111.591 135.073 18.265 59.691 84.702 87.73 134.671 115.676 47.928 26.805 98.6 60.229 112.037 117.192 9.247 39.199-2.084 84.916 22.012 117.187 42.331 56.693 124.077 13.634 130.314-47.258 5.176-50.542-31.51-94.701-65.828-132.165-33.267-36.317-70.462-71.374-99.992-110.843-27.345-36.55-41.639-81.985-5.379-118.188 8.145-8.132 17.848-16.505 14.872-29.734-9.77-43.394-97.817-49.109-131.116-46.94z" fill="url(#SVGID_1_)"/></g><g><path d="m482.895 221.818c-1.162-18.115-15.535-32.978-33.606-34.688-18.678-1.767-34.851 10.249-39.563 27.055-12.393-6.705-26.583-10.513-41.663-10.513-3.987 0-7.91.271-11.755.787l-27-27c-6.29-6.29-17.035-1.853-17.068 7.03v-24.591c0-5.523-4.477-10-10-10h-102.48v-13.549c0-8.909-10.771-13.371-17.071-7.071l-46.64 46.64c-3.905 3.905-3.905 10.237 0 14.142l13.816 13.816c-1.96-.131-3.935-.204-5.928-.204-15.08 0-29.27 3.808-41.663 10.513-4.712-16.807-20.885-28.822-39.563-27.055-18.072 1.709-32.445 16.572-33.607 34.688-1.288 20.078 13.314 37.007 32.445 39.464-3.424 9.379-5.294 19.507-5.294 30.072v120.319c0 5.523 4.477 10 10 10h91.046c5.523 0 10-4.477 10-10v-23.348h36.948c5.487 0 9.665-4.921 8.774-10.336l-6.005-36.494h15.709c4.911 0 8.892-3.981 8.892-8.892v-41.249c0-9.457-1.503-18.561-4.273-27.094h57.309c-2.77 8.533-4.273 17.638-4.273 27.094v41.249c0 4.911 3.981 8.892 8.892 8.892h15.709l-6.005 36.494c-.891 5.414 3.287 10.336 8.774 10.336h36.948v23.348c0 5.523 4.477 10 10 10h91.046c5.523 0 10-4.477 10-10v-120.32c0-10.565-1.869-20.692-5.294-30.072 19.13-2.456 33.731-19.386 32.443-39.463z" fill="#2626bc" opacity=".1"/><g><g><g><path d="m368.062 179.672c48.425 0 87.682 39.256 87.682 87.681v120.319c0 5.523-4.477 10-10 10h-91.046c-5.523 0-10-4.477-10-10v-23.348h-36.948c-5.487 0-9.665-4.921-8.774-10.336l6.005-36.494h-15.709c-4.911 0-8.892-3.981-8.892-8.892v-41.249c.001-48.425 39.257-87.681 87.682-87.681z" fill="#8399fe"/><g fill="#6583fe"><path d="m375.95 231.44-46.64 46.64c-6.3 6.3-17.07 1.84-17.07-7.07v-13.55h-31.3c3.93-35.03 28.5-63.81 61.26-73.91l33.75 33.75c3.91 3.9 3.91 10.24 0 14.14z"/><path d="m454.68 253.69c-2.89.73-5.92 1.11-9.03 1.11-20.61 0-37.32-16.71-37.32-37.32 0-8.79 3.04-16.88 8.13-23.25 20.07 13.31 34.34 34.66 38.22 59.46z"/></g></g><g><g><path d="m375.947 214.239-46.64 46.64c-6.3 6.3-17.07 1.84-17.07-7.07v-13.55h-102.48c-5.52 0-10-4.48-10-10v-46.18c0-5.52 4.48-10 10-10h102.48v-13.55c0-8.91 10.77-13.37 17.07-7.07l46.64 46.64c3.91 3.9 3.91 10.24 0 14.14z" fill="#ff7eb8"/><path d="m312.237 174.079v25c0 5.52-4.48 10-10 10h-102.48v-25c0-5.52 4.48-10 10-10z" fill="#ff5ba8"/><g><path d="m143.938 179.672c-48.426 0-87.682 39.256-87.682 87.681v120.319c0 5.523 4.477 10 10 10h91.046c5.523 0 10-4.477 10-10v-23.348h36.948c5.487 0 9.665-4.921 8.774-10.336l-6.005-36.494h15.709c4.911 0 8.892-3.981 8.892-8.892v-41.249c-.001-48.425-39.257-87.681-87.682-87.681z" fill="#ffa8cf"/><g fill="#ff7eb8"><path d="m95.54 194.23c5.09 6.37 8.13 14.46 8.13 23.25 0 20.61-16.71 37.32-37.32 37.32-3.11 0-6.14-.38-9.03-1.11 3.88-24.8 18.15-46.15 38.22-59.46z"/><path d="m209.62 209.28h-9.86v13.55c0 8.91-10.77 13.37-17.07 7.07l-46.64-46.64c-.9-.9-1.59-1.93-2.07-3.03 3.27-.37 6.59-.56 9.96-.56 26.15 0 49.63 11.45 65.68 29.61z"/></g></g></g><path d="m136.049 166.059 46.64 46.64c6.3 6.3 17.071 1.838 17.071-7.071v-13.549h102.479c5.523 0 10-4.477 10-10v-46.183c0-5.523-4.477-10-10-10h-102.479v-13.549c0-8.909-10.771-13.371-17.071-7.071l-46.64 46.64c-3.905 3.906-3.905 10.238 0 14.143z" fill="#6583fe"/></g></g><g><circle cx="66.346" cy="200.278" fill="#02ffb3" r="37.321"/><path d="m58.763 216.112c-1.28 0-2.559-.488-3.536-1.464l-3.333-3.333c-1.953-1.953-1.953-5.119 0-7.071l18.333-18.333c1.953-1.952 5.118-1.952 7.071 0l3.5 3.5c1.953 1.953 1.953 5.119 0 7.071-1.941 1.94-5.08 1.954-7.036.035l-11.268 11.269c1.754 1.963 1.688 4.979-.196 6.863-.976.974-2.255 1.463-3.535 1.463z" fill="#fff"/><circle cx="445.654" cy="200.278" fill="#02ffb3" r="37.321"/><path d="m438.07 216.112c-1.28 0-2.559-.488-3.536-1.464l-3.333-3.333c-1.953-1.953-1.953-5.119 0-7.071l18.333-18.333c1.953-1.952 5.118-1.952 7.071 0l3.5 3.5c1.953 1.953 1.953 5.119 0 7.071-1.941 1.94-5.08 1.954-7.036.035l-11.268 11.269c1.754 1.963 1.688 4.979-.196 6.863-.976.974-2.255 1.463-3.535 1.463z" fill="#fff"/></g></g><path d="m358.961 134.328c-1.28 0-2.559-.488-3.536-1.464l-11-11c-1.953-1.953-1.953-5.119 0-7.071l11-11c1.953-1.952 5.118-1.952 7.071 0l11 11c1.953 1.953 1.953 5.119 0 7.071l-11 11c-.976.976-2.255 1.464-3.535 1.464zm-3.929-16 3.929 3.929 3.929-3.929-3.929-3.929z" fill="#ff7eb8"/><path d="m205.104 426.188c-1.28 0-2.559-.488-3.536-1.464l-11-11c-1.953-1.953-1.953-5.119 0-7.071l11-11c1.953-1.952 5.118-1.952 7.071 0l11 11c1.953 1.953 1.953 5.119 0 7.071l-11 11c-.976.976-2.256 1.464-3.535 1.464zm-3.929-16 3.929 3.929 3.929-3.929-3.929-3.929z" fill="#01eca5"/><path d="m231.679 88c-2.761 0-5-2.239-5-5 0-3.309-2.691-6-6-6-2.761 0-5-2.239-5-5s2.239-5 5-5c3.309 0 6-2.691 6-6 0-2.761 2.239-5 5-5s5 2.239 5 5c0 3.309 2.691 6 6 6 2.761 0 5 2.239 5 5s-2.239 5-5 5c-3.309 0-6 2.691-6 6 0 2.761-2.239 5-5 5z" fill="#6583fe"/><path d="m255.997 413.672c-2.761 0-5-2.239-5-5 0-3.309-2.691-6-6-6-2.761 0-5-2.239-5-5s2.239-5 5-5c3.309 0 6-2.691 6-6 0-2.761 2.239-5 5-5s5 2.239 5 5c0 3.309 2.691 6 6 6 2.761 0 5 2.239 5 5s-2.239 5-5 5c-3.309 0-6 2.691-6 6 0 2.761-2.239 5-5 5z" fill="#ff7eb8"/><path d="m343 456c-2.761 0-5-2.239-5-5 0-3.309-2.691-6-6-6-2.761 0-5-2.239-5-5s2.239-5 5-5c3.309 0 6-2.691 6-6 0-2.761 2.239-5 5-5s5 2.239 5 5c0 3.309 2.691 6 6 6 2.761 0 5 2.239 5 5s-2.239 5-5 5c-3.309 0-6 2.691-6 6 0 2.761-2.239 5-5 5z" fill="#6583fe"/></g></g><g fill="#2626bc"><path d="m342.84 273.035v3.112c0 2.761 2.239 5 5 5s5-2.239 5-5v-3.112c0-2.761-2.239-5-5-5s-5 2.239-5 5z"/><path d="m390.618 303.006c-1.953-1.952-5.119-1.952-7.071 0-1.953 1.953-1.953 5.119 0 7.071 5.829 5.828 13.484 8.742 21.141 8.742 7.656 0 15.312-2.914 21.141-8.742 11.657-11.657 11.657-30.624 0-42.281-11.657-11.656-30.624-11.656-42.281 0-1.953 1.953-1.953 5.119 0 7.071s5.118 1.952 7.071 0c7.758-7.758 20.381-7.758 28.139 0s7.758 20.38 0 28.138-20.383 7.759-28.14.001z"/><path d="m167.16 281.147c2.761 0 5-2.239 5-5v-3.112c0-2.761-2.239-5-5-5s-5 2.239-5 5v3.112c0 2.762 2.239 5 5 5z"/><path d="m86.172 267.796c-11.657 11.657-11.657 30.624 0 42.281 5.829 5.828 13.485 8.742 21.141 8.742s15.312-2.914 21.141-8.742c1.953-1.953 1.953-5.119 0-7.071-1.952-1.952-5.117-1.952-7.071 0-7.758 7.758-20.381 7.757-28.139 0-7.758-7.758-7.758-20.38 0-28.138s20.381-7.758 28.139 0c1.953 1.952 5.118 1.952 7.071 0 1.953-1.953 1.953-5.119 0-7.071-11.658-11.657-30.624-11.657-42.282-.001z"/><path d="m55.061 241.059c-2.514 8.503-3.805 17.321-3.805 26.294v120.319c0 8.271 6.729 15 15 15h91.046c8.271 0 15-6.729 15-15v-18.348h31.948c4.086 0 7.946-1.787 10.59-4.901 2.644-3.115 3.78-7.214 3.117-11.246l-5.049-30.683h9.818c7.66 0 13.892-6.232 13.892-13.892v-41.25c0-26.892-11.596-52.286-31.858-69.922v-.352h97.479c8.271 0 15-6.729 15-15v-21.541c0-.003.001-.006.001-.01 0-3.1 2.362-4.319 3.086-4.619s3.257-1.108 5.449 1.084l46.64 46.639c1.949 1.95 1.95 5.122 0 7.071l-46.64 46.64c-2.19 2.192-4.724 1.384-5.449 1.084-.724-.3-3.086-1.52-3.086-4.619v-13.549c0-2.761-2.239-5-5-5h-51.99c-2.761 0-5 2.239-5 5s2.239 5 5 5h17.808c-1.739 7.084-2.676 14.48-2.676 22.092v41.25c0 7.66 6.232 13.892 13.892 13.892h9.818l-5.049 30.683c-.663 4.032.473 8.131 3.117 11.246 2.645 3.115 6.504 4.901 10.59 4.901h31.948v18.348c0 8.271 6.729 15 15 15h91.046c8.271 0 15-6.729 15-15v-120.317c0-2.761-2.239-5-5-5s-5 2.239-5 5v120.319c0 2.757-2.243 5-5 5h-91.046c-2.757 0-5-2.243-5-5v-23.348c0-2.761-2.239-5-5-5h-36.948c-1.567 0-2.531-.86-2.967-1.373s-1.128-1.604-.874-3.15l1.698-10.319c36.9-.571 52.063-8.449 52.713-8.797 2.435-1.303 3.352-4.333 2.049-6.768-1.303-2.434-4.332-3.351-6.768-2.049-.135.072-13.197 6.844-46.343 7.58l1.967-11.954h9.983c2.761 0 5-2.239 5-5s-2.239-5-5-5h-14.227-15.708c-2.146 0-3.892-1.746-3.892-3.892v-41.25c0-7.654 1.075-15.055 3.035-22.092h18.823v8.549c0 6.182 3.548 11.492 9.26 13.858 1.914.793 3.89 1.18 5.835 1.18 3.861 0 7.605-1.525 10.512-4.432l46.64-46.64c5.848-5.848 5.848-15.364 0-21.213l-11.885-11.885c.154-.001.306-.006.46-.006 12.615 0 24.694 2.764 35.932 8.203-.427 2.406-.662 4.877-.662 7.404 0 23.335 18.985 42.32 42.321 42.32 23.335 0 42.32-18.985 42.32-42.32 0-23.336-18.985-42.321-42.32-42.321-17.262 0-32.133 10.393-38.71 25.246-12.204-5.659-25.267-8.532-38.881-8.532-3.355 0-6.666.186-9.928.538l-25.287-25.287c-4.184-4.184-10.101-5.496-15.608-3.527v-10.499c0-8.271-6.729-15-15-15h-97.478v-8.549c0-6.182-3.548-11.492-9.259-13.858-5.713-2.367-11.976-1.12-16.348 3.251l-46.64 46.64c-2.833 2.833-4.394 6.6-4.394 10.606 0 4.007 1.561 7.773 4.394 10.607l5.287 5.287c-11.336.754-22.476 3.584-32.743 8.324-6.577-14.854-21.449-25.248-38.711-25.248-23.335 0-42.32 18.985-42.32 42.321 0 19.428 13.162 35.829 31.035 40.782zm390.593-73.101c17.821 0 32.32 14.499 32.32 32.321 0 17.821-14.499 32.32-32.32 32.32-17.822 0-32.321-14.499-32.321-32.32 0-17.822 14.499-32.321 32.321-32.321zm-306.07-12.505 46.64-46.64c1.159-1.159 2.414-1.48 3.445-1.48.92 0 1.663.254 2.004.396.724.3 3.086 1.519 3.086 4.619v13.549c0 2.761 2.239 5 5 5h102.479c2.757 0 5 2.243 5 5v46.183c0 2.757-2.243 5-5 5h-102.478c-2.761 0-5 2.239-5 5v13.548c0 3.1-2.363 4.32-3.087 4.62-.724.299-3.257 1.107-5.449-1.084l-46.64-46.64c-1.949-1.95-1.949-5.122 0-7.071zm4.354 29.219c1.247 0 2.499.038 3.746.094l31.469 31.469c2.907 2.907 6.65 4.432 10.512 4.432 1.945 0 3.922-.388 5.835-1.18 4.135-1.713 7.127-4.973 8.469-8.986 14.49 15.289 22.649 35.545 22.649 56.853v41.25c0 2.146-1.746 3.892-3.892 3.892h-15.708-14.227c-2.761 0-5 2.239-5 5s2.239 5 5 5h9.983l1.967 11.953c-32.587-.742-46.098-7.455-46.37-7.593-2.43-1.284-5.443-.362-6.741 2.063-1.303 2.435-.386 5.465 2.049 6.768.65.348 15.812 8.226 52.713 8.797l1.698 10.319c.254 1.546-.438 2.638-.874 3.151s-1.4 1.373-2.967 1.373h-36.948c-2.761 0-5 2.239-5 5v23.348c0 2.757-2.243 5-5 5h-91.045c-2.757 0-5-2.243-5-5v-120.322c0-8.477 1.271-16.798 3.78-24.788.436.013.871.033 1.31.033 23.336 0 42.321-18.985 42.321-42.32 0-2.526-.235-4.996-.661-7.401 11.133-5.371 23.48-8.205 35.932-8.205zm-77.592-16.714c17.822 0 32.321 14.499 32.321 32.321 0 17.821-14.499 32.32-32.321 32.32-17.821 0-32.32-14.499-32.32-32.32 0-17.822 14.499-32.321 32.32-32.321z"/></g></g></svg>