<svg id="Capa_1" enable-background="new 0 0 512 512" height="512" viewBox="0 0 512 512" width="512" xmlns="http://www.w3.org/2000/svg" xmlns:xlink="http://www.w3.org/1999/xlink"><linearGradient id="SVGID_1_" gradientUnits="userSpaceOnUse" x1="545.415" x2="144.935" y1="177.887" y2="320.38"><stop offset="0" stop-color="#c7d3ff"/><stop offset=".593" stop-color="#e7d8f5"/><stop offset=".997" stop-color="#ffdbed"/></linearGradient><path d="m364.823 55.215c-69.098-27.035-164.784-16.764-217.662 31.51-37.336 34.085-8.439 43.8 17.016 106.17 18.423 45.14-164.177 38.927-164.177 120.495 0 94.299 132.251 76.424 181.329 87.218 75.036 16.504 140.496 78.242 220.668 70.103 69.795-7.086 96.403-61.855 106.109-124.642 18.082-116.976-26.329-245.094-143.283-290.854z" fill="url(#SVGID_1_)"/><path d="m413.473 418.322h-20.713v-193.146c0-11.474 19.395-20.843 19.395-20.843v-107.496c0-5.523-4.477-10-10-10h-110.555c-5.523 0-10 4.477-10 10v107.49h-177.53c-11.51 0-20.84 9.33-20.84 20.85v193.146h-20.705c-6.89 0-12.476 5.586-12.476 12.476v11.465c0 12.09 9.797 21.898 21.898 21.898h332.104c12.101 0 21.898-9.808 21.898-21.898v-11.465c0-6.892-5.586-12.477-12.476-12.477z" fill="#2626bc" opacity=".11"/><path d="m410.76 207.176v208.93c0 2.76-2.24 5-5 5h-304.53v-213.93c0-11.52 9.33-20.85 20.84-20.85h267.85c11.51 0 20.84 9.33 20.84 20.85z" fill="#9fb0fe"/><path d="m238.098 375.474h-102.029v-126.733c0-2.761 2.239-5 5-5h92.029c2.761 0 5 2.239 5 5z" fill="#ffa8cf"/><path d="m410.76 207.176v93.98h-98.16c-5.52 0-10-4.47-10-10v-104.83h87.32c11.51 0 20.84 9.33 20.84 20.85z" fill="#8399fe"/><path d="m410.763 375.473v40.63c0 2.76-2.24 5-5 5h-304.53v-45.63z" fill="#01eca5"/><path d="m443.949 412.798v11.465c0 12.09-9.797 21.898-21.898 21.898h-332.104c-12.101 0-21.898-9.808-21.898-21.898v-11.465c0-6.89 5.586-12.476 12.476-12.476h107.067c1.849 0 3.548 1.021 4.416 2.654l6.56 12.348c.868 1.633 2.566 2.654 4.416 2.654h106.031c1.849 0 3.548-1.021 4.416-2.654l6.56-12.348c.868-1.633 2.566-2.654 4.415-2.654h107.067c6.89 0 12.476 5.585 12.476 12.476z" fill="#97ffd2"/><path d="m443.95 412.793v11.47c0 12.09-9.8 21.9-21.9 21.9h-14.72c12.1 0 21.9-9.81 21.9-21.9v-11.47c0-6.89-5.59-12.47-12.48-12.47h14.72c6.89 0 12.48 5.58 12.48 12.47z" fill="#dcfdee"/><path d="m149.65 418.44h-43.333c-2.761 0-5-2.239-5-5v-13.118h53.333v13.118c0 2.761-2.239 5-5 5z" fill="#ff7eb8"/><path d="m405.558 418.44h-43.333c-2.761 0-5-2.239-5-5v-13.118h53.333v13.118c0 2.761-2.239 5-5 5z" fill="#ff7eb8"/><path d="m423.155 284.276h-110.555c-5.523 0-10-4.477-10-10v-198.439c0-5.523 4.477-10 10-10h110.555c5.523 0 10 4.477 10 10v198.44c0 5.522-4.477 9.999-10 9.999z" fill="#ffc4df"/><path d="m367.878 90.898c-6.921 0-12.531-5.61-12.531-12.531v-12.53h25.061v12.531c0 6.92-5.61 12.53-12.53 12.53z" fill="#9fb0fe"/><path d="m214.046 320.073h-54.141c-2.762 0-5-2.239-5-5s2.238-5 5-5h54.141c2.762 0 5 2.239 5 5s-2.238 5-5 5z" fill="#fff"/><path d="m362.181 337.715h-202.275c-2.762 0-5-2.239-5-5s2.238-5 5-5h202.275c2.762 0 5 2.239 5 5s-2.238 5-5 5z" fill="#97ffd2"/><path d="m362.181 355.356h-202.275c-2.762 0-5-2.239-5-5s2.238-5 5-5h202.275c2.762 0 5 2.239 5 5s-2.238 5-5 5z" fill="#97ffd2"/><path d="m213.292 164.813c-3.74 0-7.479-1.423-10.326-4.271-5.693-5.692-5.693-14.957 0-20.651 5.695-5.694 14.959-5.693 20.652-.001 5.694 5.695 5.693 14.96 0 20.652v.001c-2.847 2.846-6.587 4.27-10.326 4.27zm6.791-7.806h.01zm-6.791-11.392c-1.179 0-2.357.448-3.255 1.346-1.794 1.795-1.795 4.716 0 6.511 1.794 1.793 4.714 1.794 6.51-.001 1.794-1.794 1.794-4.715-.001-6.51-.897-.897-2.075-1.346-3.254-1.346z" fill="#8399fe"/><path d="m68.049 360.836c-3.739 0-7.479-1.423-10.326-4.271-5.693-5.693-5.693-14.957 0-20.65 5.695-5.696 14.958-5.694 20.652 0 5.693 5.693 5.693 14.957 0 20.65-2.847 2.848-6.586 4.271-10.326 4.271zm0-19.196c-1.178 0-2.357.449-3.254 1.346-1.794 1.795-1.794 4.715 0 6.51 1.795 1.793 4.714 1.792 6.509 0 1.794-1.795 1.794-4.715 0-6.51-.897-.897-2.076-1.346-3.255-1.346z" fill="#8399fe"/><path d="m109.862 175.888c-3.901 0-7.568-1.52-10.326-4.278-5.693-5.693-5.693-14.957 0-20.65 5.693-5.695 14.958-5.695 20.652 0 5.693 5.693 5.693 14.957 0 20.65h.001c-.001 0-.001 0-.001 0-2.759 2.758-6.426 4.278-10.326 4.278zm0-19.204c-1.179 0-2.357.449-3.255 1.347-1.794 1.794-1.794 4.714 0 6.509.87.869 2.025 1.349 3.255 1.349 1.229 0 2.385-.479 3.254-1.349 1.794-1.795 1.794-4.715 0-6.51-.897-.897-2.075-1.346-3.254-1.346z" fill="#01eca5"/><path d="m254.634 124.316h-3.25v-3.25c0-2.762-2.239-5-5-5s-5 2.238-5 5v3.25h-3.25c-2.761 0-5 2.238-5 5s2.239 5 5 5h3.25v3.25c0 2.762 2.239 5 5 5s5-2.238 5-5v-3.25h3.25c2.762 0 5-2.238 5-5s-2.238-5-5-5z" fill="#ff7eb8"/><path d="m452.199 316.178h-3.25v-3.25c0-2.762-2.238-5-5-5s-5 2.238-5 5v3.25h-3.25c-2.762 0-5 2.238-5 5s2.238 5 5 5h3.25v3.25c0 2.762 2.238 5 5 5s5-2.238 5-5v-3.25h3.25c2.762 0 5-2.238 5-5s-2.238-5-5-5z" fill="#ff7eb8"/><path d="m431.474 395.322h-15.706v-106.046h7.388c8.271 0 15-6.729 15-15v-198.439c0-8.271-6.729-15-15-15h-110.556c-8.271 0-15 6.729-15 15v105.488h-175.524c-14.251 0-25.845 11.594-25.845 25.845v60.689c0 2.762 2.239 5 5 5s5-2.238 5-5v-60.689c0-8.737 7.108-15.845 15.845-15.845h175.524v82.951c0 8.271 6.729 15 15 15h70.068c2.762 0 5-2.238 5-5s-2.238-5-5-5h-70.068c-2.757 0-5-2.243-5-5v-198.439c0-2.757 2.243-5 5-5h37.747v7.53c0 9.667 7.864 17.531 17.531 17.531 9.666 0 17.53-7.864 17.53-17.531v-7.53h37.747c2.757 0 5 2.243 5 5v198.439c0 2.757-2.243 5-5 5h-12.388c-2.762 0-5 2.238-5 5v86.198h-299.536v-74.516c0-2.762-2.239-5-5-5s-5 2.238-5 5v99.363h-15.706c-9.636 0-17.476 7.84-17.476 17.476v11.465c0 14.831 12.066 26.897 26.897 26.897h332.104c14.832 0 26.898-12.066 26.898-26.897v-11.465c.001-9.635-7.839-17.475-17.474-17.475zm-56.066-316.955c0 4.152-3.378 7.531-7.53 7.531s-7.531-3.379-7.531-7.531v-7.53h15.062v7.53zm30.156 335.072h-43.34v-8.117h43.336zm.204-32.964v14.847l-81.361.001c-3.707 0-7.091 2.033-8.832 5.308l-6.56 12.348h-106.032l-6.56-12.349c-1.74-3.273-5.124-5.307-8.831-5.307l-81.361-.001v-14.847zm-256.112 32.964h-43.339v-8.117h43.335zm289.293 10.824c0 9.317-7.581 16.897-16.898 16.897h-332.104c-9.317 0-16.897-7.58-16.897-16.897v-11.465c0-4.122 3.354-7.476 7.476-7.476h15.791v8.117c0 5.514 4.486 10 10 10h43.333c5.514 0 10-4.486 10-10v-8.118h27.943l6.56 12.347c1.739 3.275 5.124 5.31 8.832 5.31h106.031c3.708 0 7.092-2.034 8.832-5.309l6.56-12.347h27.818v8.117c0 5.514 4.486 10 10 10h43.333c5.514 0 10-4.486 10-10v-8.117h15.916c4.122 0 7.476 3.354 7.476 7.476v11.465z" fill="#2626bc"/><path d="m247.329 401.439h17.341c2.762 0 5-2.238 5-5s-2.238-5-5-5h-17.341c-2.761 0-5 2.238-5 5s2.238 5 5 5z" fill="#2626bc"/><path d="m412.157 141.998c-.95-1.135-2.354-1.79-3.834-1.79h-58.587l-3.222-9.967c-.667-2.063-2.589-3.462-4.758-3.462h-14.323c-2.762 0-5 2.238-5 5s2.238 5 5 5h10.685l12.14 37.553h-.86c-2.762 0-5 2.238-5 5s2.238 5 5 5h52.834c2.423 0 4.496-1.736 4.922-4.121l6.092-34.124c.26-1.457-.14-2.954-1.089-4.089zm-14.112 32.334h-37.277l-7.799-24.124h49.383z" fill="#ff7eb8"/><path d="m360.104 215.039c-7.175 0-13.012-5.837-13.012-13.012s5.837-13.012 13.012-13.012 13.012 5.837 13.012 13.012-5.837 13.012-13.012 13.012zm0-16.023c-1.661 0-3.012 1.351-3.012 3.012s1.351 3.012 3.012 3.012 3.012-1.351 3.012-3.012-1.35-3.012-3.012-3.012z" fill="#ff7eb8"/><path d="m397.44 215.039c-7.175 0-13.012-5.837-13.012-13.012s5.837-13.012 13.012-13.012 13.013 5.837 13.013 13.012-5.838 13.012-13.013 13.012zm0-16.023c-1.661 0-3.012 1.351-3.012 3.012s1.351 3.012 3.012 3.012 3.013-1.351 3.013-3.012-1.351-3.012-3.013-3.012z" fill="#ff7eb8"/><g fill="#d2deff"><path d="m255.995 254.908c3.087 0 5.59-2.503 5.59-5.59s-2.503-5.59-5.59-5.59-5.59 2.503-5.59 5.59c0 3.088 2.503 5.59 5.59 5.59z"/><path d="m255.995 260.639c-3.087 0-5.59 2.503-5.59 5.59s2.503 5.59 5.59 5.59 5.59-2.503 5.59-5.59c0-3.088-2.503-5.59-5.59-5.59z"/><circle cx="255.995" cy="283.139" r="5.59"/><path d="m216.546 224.421h-58.586l-3.222-9.968c-.667-2.063-2.589-3.462-4.758-3.462h-14.324c-2.761 0-5 2.238-5 5s2.239 5 5 5h10.686l12.139 37.554h-.86c-2.761 0-5 2.238-5 5s2.239 5 5 5h52.834c2.422 0 4.497-1.736 4.922-4.121l6.092-34.124c.26-1.457-.139-2.954-1.089-4.089s-2.354-1.79-3.834-1.79zm-10.278 34.124h-37.277l-7.798-24.124h49.382z"/><path d="m168.328 273.229c-7.175 0-13.012 5.837-13.012 13.012s5.837 13.012 13.012 13.012 13.012-5.837 13.012-13.012-5.837-13.012-13.012-13.012zm0 16.023c-1.661 0-3.012-1.351-3.012-3.012s1.351-3.012 3.012-3.012 3.012 1.351 3.012 3.012-1.351 3.012-3.012 3.012z"/><path d="m205.665 273.229c-7.175 0-13.012 5.837-13.012 13.012s5.837 13.012 13.012 13.012 13.012-5.837 13.012-13.012-5.838-13.012-13.012-13.012zm0 16.023c-1.661 0-3.012-1.351-3.012-3.012s1.351-3.012 3.012-3.012 3.012 1.351 3.012 3.012-1.352 3.012-3.012 3.012z"/></g><path d="m401.615 261.609h-67.475c-2.762 0-5-2.238-5-5s2.238-5 5-5h67.476c2.762 0 5 2.238 5 5s-2.239 5-5.001 5z" fill="#9fb0fe"/></svg>