<svg id="Capa_1" enable-background="new 0 0 512 512" height="512" viewBox="0 0 512 512" width="512" xmlns="http://www.w3.org/2000/svg" xmlns:xlink="http://www.w3.org/1999/xlink"><linearGradient id="SVGID_1_" gradientUnits="userSpaceOnUse" x1="15.63" x2="496.37" y1="256" y2="256"><stop offset=".0485" stop-color="#d2deff"/><stop offset=".9993" stop-color="#dcfdee"/></linearGradient><g><g><path d="m20.722 179.563c26.255 85.007 107.775 89.005 182.131 93.553 244.867 14.978-63.002 218.186 146.697 238.304 77.136 7.4 157.788-56.956 145.59-140.291-11.107-75.879-121.152-121.073-121.207-191.979-.043-55.945 103.86-96.409 36.272-156.553-60.249-53.612-442.871-15.888-389.483 156.966z" fill="url(#SVGID_1_)"/></g><g><path d="m439.66 245.43-28.9-6.14c-3.89-15.39-9.96-29.91-17.82-43.24l16.04-24.69c2.66-4.1 2.09-9.5-1.36-12.96l-35.13-35.13c-3.45-3.45-8.85-4.02-12.95-1.36l-24.56 15.96c-13.38-7.97-27.97-14.12-43.46-18.07l-6.06-28.56c-1.01-4.79-5.23-8.2-10.12-8.2h-49.68c-4.89 0-9.11 3.41-10.12 8.2l-6.06 28.56c-15.49 3.95-30.08 10.1-43.46 18.07l-24.56-15.96c-4.1-2.66-9.5-2.09-12.95 1.36l-35.13 35.13c-3.45 3.46-4.02 8.86-1.36 12.96l16.04 24.69c-7.86 13.33-13.93 27.85-17.82 43.24l-28.9 6.14c-4.78 1.02-8.2 5.24-8.2 10.12v49.67c0 4.89 3.42 9.11 8.2 10.13l29.13 6.18c3.94 15.24 10.01 29.61 17.85 42.81l-16.3 25.08c-2.66 4.1-2.09 9.5 1.36 12.96l35.13 35.13c3.45 3.45 8.85 4.02 12.95 1.36l25.23-16.39c13.15 7.74 27.45 13.73 42.6 17.61l6.25 29.45c1.01 4.79 5.23 8.2 10.12 8.2h49.68c4.89 0 9.11-3.41 10.12-8.2l6.25-29.45c15.15-3.88 29.45-9.87 42.6-17.61l25.23 16.39c4.1 2.66 9.5 2.09 12.95-1.36l35.13-35.13c3.45-3.46 4.02-8.86 1.36-12.96l-16.3-25.08c7.84-13.2 13.91-27.57 17.85-42.81l29.13-6.18c4.78-1.02 8.2-5.24 8.2-10.13v-49.67c0-4.88-3.42-9.1-8.2-10.12zm-189.16 157.51c-67.91 0-122.97-55.06-122.97-122.97 0-59.723 42.587-109.5 99.045-120.636-24.858 41.06-60.232 104.782-60.232 134.902 0 46.433 37.641 84.074 84.074 84.074s84.074-37.641 84.074-84.074c0-30.129-35.395-93.879-60.254-134.938 56.551 11.063 99.232 60.883 99.232 120.672.001 67.91-55.059 122.97-122.969 122.97z" fill="#2626bc" opacity=".1"/><g><g><path d="m439.66 221.43-28.9-6.14c-3.89-15.39-9.96-29.91-17.82-43.24l16.04-24.69c2.66-4.1 2.09-9.5-1.36-12.96l-35.13-35.13c-3.45-3.45-8.85-4.02-12.95-1.36l-24.56 15.96c-13.38-7.97-27.97-14.12-43.46-18.07l-6.06-28.56c-1.01-4.79-5.23-8.2-10.12-8.2h-49.68c-4.89 0-9.11 3.41-10.12 8.2l-6.06 28.56c-15.49 3.95-30.08 10.1-43.46 18.07l-24.56-15.96c-4.1-2.66-9.5-2.09-12.95 1.36l-35.13 35.13c-3.45 3.46-4.02 8.86-1.36 12.96l16.04 24.69c-7.86 13.33-13.93 27.85-17.82 43.24l-28.9 6.14c-4.78 1.02-8.2 5.24-8.2 10.12v49.67c0 4.89 3.42 9.11 8.2 10.13l29.13 6.18c3.94 15.24 10.01 29.61 17.85 42.81l-16.3 25.08c-2.66 4.1-2.09 9.5 1.36 12.96l35.13 35.13c3.45 3.45 8.85 4.02 12.95 1.36l25.23-16.39c13.15 7.74 27.45 13.73 42.6 17.61l6.25 29.45c1.01 4.79 5.23 8.2 10.12 8.2h49.68c4.89 0 9.11-3.41 10.12-8.2l6.25-29.45c15.15-3.88 29.45-9.87 42.6-17.61l25.23 16.39c4.1 2.66 9.5 2.09 12.95-1.36l35.13-35.13c3.45-3.46 4.02-8.86 1.36-12.96l-16.3-25.08c7.84-13.2 13.91-27.57 17.85-42.81l29.13-6.18c4.78-1.02 8.2-5.24 8.2-10.13v-49.67c0-4.88-3.42-9.1-8.2-10.12zm-189.16 157.51c-67.91 0-122.97-55.06-122.97-122.97s55.06-122.97 122.97-122.97 122.97 55.06 122.97 122.97-55.06 122.97-122.97 122.97z" fill="#ff7eb8"/><path d="m250.5 112.67c-79.14 0-143.3 64.16-143.3 143.3s64.16 143.3 143.3 143.3 143.3-64.16 143.3-143.3-64.16-143.3-143.3-143.3zm0 266.27c-67.91 0-122.97-55.06-122.97-122.97s55.06-122.97 122.97-122.97 122.97 55.06 122.97 122.97-55.06 122.97-122.97 122.97z" fill="#ffc4df"/></g><g fill="#fff"><g><path d="m250.5 88.144c-2.762 0-5-2.239-5-5v-4.884c0-2.761 2.238-5 5-5s5 2.239 5 5v4.883c0 2.762-2.238 5.001-5 5.001z"/><path d="m250.5 439.521c-2.762 0-5-2.239-5-5v-4.884c0-2.761 2.238-5 5-5s5 2.239 5 5v4.884c0 2.761-2.238 5-5 5z"/></g><g><path d="m428.63 261.39h-4.884c-2.762 0-5-2.239-5-5s2.238-5 5-5h4.884c2.762 0 5 2.239 5 5s-2.238 5-5 5z"/><path d="m77.254 261.39h-4.884c-2.762 0-5-2.239-5-5s2.238-5 5-5h4.884c2.762 0 5 2.239 5 5s-2.238 5-5 5z"/></g><g><path d="m376.457 387.347c-1.279 0-2.56-.488-3.535-1.464l-3.453-3.453c-1.953-1.953-1.953-5.119 0-7.071 1.951-1.952 5.119-1.952 7.07 0l3.453 3.453c1.953 1.953 1.953 5.119 0 7.071-.975.976-2.256 1.464-3.535 1.464z"/><path d="m127.996 138.886c-1.279 0-2.56-.488-3.535-1.464l-3.453-3.453c-1.953-1.953-1.953-5.119 0-7.071 1.951-1.952 5.119-1.952 7.07 0l3.453 3.453c1.953 1.953 1.953 5.119 0 7.071-.975.976-2.256 1.464-3.535 1.464z"/></g><g><path d="m124.543 387.347c-1.279 0-2.56-.488-3.535-1.464-1.953-1.953-1.953-5.119 0-7.071l3.453-3.453c1.951-1.952 5.119-1.952 7.07 0 1.953 1.953 1.953 5.119 0 7.071l-3.453 3.453c-.975.976-2.256 1.464-3.535 1.464z"/><path d="m373.004 138.886c-1.279 0-2.56-.488-3.535-1.464-1.953-1.953-1.953-5.119 0-7.071l3.453-3.453c1.951-1.952 5.119-1.952 7.07 0 1.953 1.953 1.953 5.119 0 7.071l-3.453 3.453c-.976.976-2.256 1.464-3.535 1.464z"/></g></g></g><path d="m393.8 81.87c-2.762 0-5-2.239-5-5 0-3.309-2.691-6-6-6-2.762 0-5-2.239-5-5s2.238-5 5-5c3.309 0 6-2.691 6-6 0-2.761 2.238-5 5-5s5 2.239 5 5c0 3.309 2.691 6 6 6 2.762 0 5 2.239 5 5s-2.238 5-5 5c-3.309 0-6 2.691-6 6 0 2.761-2.238 5-5 5z" fill="#ff7eb8"/><path d="m447.86 358.17c-2.762 0-5-2.239-5-5 0-3.309-2.691-6-6-6-2.762 0-5-2.239-5-5s2.238-5 5-5c3.309 0 6-2.691 6-6 0-2.761 2.238-5 5-5s5 2.239 5 5c0 3.309 2.691 6 6 6 2.762 0 5 2.239 5 5s-2.238 5-5 5c-3.309 0-6 2.691-6 6 0 2.762-2.238 5-5 5z" fill="#01eca5"/><path d="m434.255 139.67c-1.279 0-2.56-.488-3.535-1.464-1.953-1.953-1.953-5.119 0-7.071l3.327-3.328-5.002-3.172c-1.282-.813-2.125-2.165-2.292-3.673s.361-3.012 1.435-4.085l7.742-7.742c1.951-1.952 5.119-1.952 7.07 0 1.953 1.953 1.953 5.119 0 7.071l-3.327 3.327 5.002 3.172c1.282.813 2.125 2.165 2.292 3.673s-.36 3.012-1.435 4.085l-7.742 7.742c-.976.977-2.256 1.465-3.535 1.465z" fill="#6583fe"/><path d="m56.233 184.882c-1.279 0-2.56-.488-3.535-1.464-1.953-1.953-1.953-5.119 0-7.071l3.327-3.328-5.002-3.172c-1.282-.813-2.125-2.165-2.292-3.673s.361-3.012 1.435-4.085l7.742-7.742c1.951-1.952 5.119-1.952 7.07 0 1.953 1.953 1.953 5.119 0 7.071l-3.327 3.327 5.002 3.172c1.282.813 2.125 2.165 2.292 3.673s-.36 3.012-1.435 4.085l-7.742 7.742c-.975.977-2.255 1.465-3.535 1.465z" fill="#6583fe"/><path d="m174.771 478.57c-1.279 0-2.56-.488-3.535-1.464-1.953-1.953-1.953-5.119 0-7.071l3.327-3.327-5.002-3.172c-1.282-.813-2.125-2.165-2.292-3.673s.36-3.012 1.435-4.085l7.742-7.742c1.951-1.952 5.119-1.952 7.07 0 1.953 1.953 1.953 5.119 0 7.071l-3.327 3.328 5.002 3.172c1.282.813 2.125 2.165 2.292 3.673s-.361 3.012-1.435 4.085l-7.742 7.742c-.975.975-2.255 1.463-3.535 1.463z" fill="#01eca5"/><path d="m334.492 270.237c0 46.433-37.641 84.074-84.074 84.074s-84.074-37.641-84.074-84.074c0-39.825 61.847-138.403 79.45-165.654 2.17-3.36 7.077-3.36 9.248 0 17.603 27.251 79.45 125.829 79.45 165.654z" fill="#8399fe"/><path d="m334.49 270.24c0 46.43-37.64 84.07-84.07 84.07-46.44 0-84.08-37.64-84.08-84.07 0-5.26 1.08-11.54 2.99-18.54 9.76 35.63 42.36 61.8 81.09 61.8 38.72 0 71.32-26.17 81.08-61.8 1.91 7 2.99 13.28 2.99 18.54z" fill="#6583fe"/><g fill="#2626bc"><path d="m440.701 216.541-25.891-5.503c-3.688-13.518-9.062-26.555-16.011-38.836l14.37-22.121c3.923-6.04 3.074-14.121-2.018-19.214l-35.122-35.13c-5.094-5.095-13.177-5.945-19.217-2.019l-21.975 14.277c-12.333-7.043-25.445-12.496-39.062-16.244l-5.425-25.554c-1.495-7.047-7.81-12.163-15.015-12.163h-49.676c-7.205 0-13.52 5.115-15.015 12.163l-5.425 25.554c-13.616 3.748-26.729 9.2-39.062 16.244l-21.974-14.276c-6.043-3.927-14.124-3.076-19.218 2.018l-35.122 35.13c-5.092 5.093-5.94 13.174-2.018 19.214l14.37 22.121c-6.947 12.278-12.322 25.317-16.011 38.836l-25.892 5.503c-7.045 1.499-12.157 7.813-12.157 15.014v8.263c0 2.761 2.238 5 5 5s5-2.239 5-5v-8.263c0-2.51 1.782-4.71 4.236-5.233l28.904-6.144c1.864-.396 3.341-1.817 3.809-3.665 3.711-14.675 9.524-28.78 17.28-41.924.964-1.634.92-3.673-.113-5.265l-16.04-24.692c-1.367-2.105-1.072-4.921.703-6.696l35.122-35.13c1.774-1.776 4.592-2.072 6.697-.703l24.557 15.955c1.597 1.038 3.646 1.079 5.282.103 13.188-7.854 27.364-13.75 42.135-17.521 1.843-.471 3.259-1.946 3.653-3.807l6.063-28.56c.521-2.456 2.723-4.239 5.233-4.239h49.676c2.511 0 4.712 1.783 5.233 4.239l6.063 28.56c.395 1.86 1.811 3.336 3.653 3.807 14.771 3.771 28.947 9.667 42.135 17.521 1.637.976 3.688.935 5.282-.103l24.558-15.955c2.104-1.367 4.92-1.073 6.696.704l35.122 35.13c1.775 1.775 2.07 4.591.703 6.696l-16.04 24.692c-1.033 1.591-1.077 3.63-.113 5.265 7.757 13.146 13.571 27.251 17.28 41.924.467 1.848 1.944 3.269 3.809 3.665l28.903 6.144c2.455.522 4.237 2.723 4.237 5.233v49.668c0 2.511-1.782 4.711-4.238 5.232l-29.13 6.186c-1.854.394-3.326 1.803-3.802 3.638-3.768 14.557-9.592 28.521-17.31 41.502-.973 1.636-.932 3.683.105 5.279l16.297 25.085c1.368 2.105 1.072 4.922-.702 6.697l-35.121 35.129c-1.775 1.776-4.593 2.073-6.698.704l-25.229-16.39c-1.59-1.033-3.628-1.078-5.261-.115-12.961 7.633-26.856 13.379-41.301 17.079-1.842.472-3.256 1.946-3.65 3.806l-6.251 29.451c-.521 2.456-2.721 4.238-5.231 4.238h-49.676c-2.511 0-4.711-1.783-5.232-4.239l-6.25-29.45c-.395-1.859-1.809-3.334-3.649-3.806-14.446-3.7-28.342-9.446-41.301-17.079-1.634-.962-3.672-.917-5.261.115l-25.229 16.39c-2.107 1.369-4.924 1.071-6.697-.704l-35.122-35.13c-1.774-1.775-2.07-4.591-.703-6.696l16.298-25.085c1.037-1.596 1.078-3.643.105-5.279-7.718-12.982-13.542-26.946-17.31-41.502-.476-1.835-1.947-3.244-3.802-3.638l-29.131-6.186c-2.455-.521-4.237-2.722-4.237-5.232v-8.415c0-2.761-2.238-5-5-5s-5 2.239-5 5v8.415c0 7.204 5.114 13.519 12.16 15.015l26.135 5.55c3.731 13.393 9.107 26.284 16.018 38.406l-14.616 22.505c-3.924 6.041-3.075 14.122 2.018 19.214l35.122 35.13c5.095 5.094 13.176 5.942 19.216 2.019l22.661-14.722c12.084 6.825 24.902 12.127 38.188 15.795l5.613 26.446c1.495 7.048 7.81 12.163 15.014 12.163h49.676c7.205 0 13.52-5.116 15.014-12.163l5.613-26.446c13.284-3.667 26.103-8.969 38.188-15.795l22.66 14.722c6.038 3.923 14.121 3.076 19.217-2.019l35.122-35.13c5.092-5.094 5.939-13.174 2.016-19.215l-14.621-22.505c6.91-12.122 12.286-25.013 16.018-38.406l26.134-5.55c7.047-1.496 12.161-7.811 12.161-15.015v-49.668c-.002-7.201-5.115-13.516-12.16-15.014z"/><path d="m250.418 359.311c49.115 0 89.074-39.959 89.074-89.075 0-40.955-61.425-139.225-80.251-168.367-1.944-3.01-5.242-4.807-8.824-4.807-3.581 0-6.879 1.797-8.823 4.807-4.267 6.606-10.727 16.771-18.16 29.009-28.002 6.036-53.463 21.564-71.78 43.815-18.781 22.814-29.124 51.679-29.124 81.279 0 70.563 57.407 127.97 127.97 127.97s127.97-57.407 127.97-127.97c0-46.402-25.209-89.269-65.789-111.872-2.412-1.346-5.457-.477-6.801 1.935-1.344 2.413-.478 5.458 1.936 6.801 37.413 20.839 60.654 60.358 60.654 103.135 0 65.049-52.921 117.97-117.97 117.97s-117.97-52.921-117.97-117.97c0-27.287 9.533-53.895 26.844-74.923 14.804-17.983 34.665-31.195 56.723-37.933-24.542 41.489-54.754 98.403-54.754 127.121 0 49.116 39.959 89.075 89.075 89.075zm-.424-252.017c.041-.063.15-.232.423-.232s.383.169.424.233c38.022 58.859 78.651 132.573 78.651 162.941 0 43.602-35.473 79.075-79.074 79.075-43.603 0-79.075-35.473-79.075-79.075 0-30.363 40.629-104.079 78.651-162.942z"/></g></g></g></svg>